<mxfile host="app.diagrams.net" agent="Mozilla/5.0 (Windows NT 10.0; Win64; x64) AppleWebKit/537.36 (KHTML, like Gecko) Chrome/138.0.0.0 Safari/537.36" version="28.0.6">
  <diagram name="ページ1" id="ZyRBFUfoapcY5uo07v97">
    <mxGraphModel dx="786" dy="551" grid="1" gridSize="10" guides="1" tooltips="1" connect="1" arrows="1" fold="1" page="1" pageScale="1" pageWidth="827" pageHeight="1169" math="0" shadow="0">
      <root>
        <mxCell id="0" />
        <mxCell id="1" parent="0" />
        <mxCell id="h3gUuhife9UV1E4KLszD-1" value="Start" style="strokeWidth=2;html=1;shape=mxgraph.flowchart.start_1;whiteSpace=wrap;" vertex="1" parent="1">
          <mxGeometry x="360" y="40" width="100" height="60" as="geometry" />
        </mxCell>
        <mxCell id="h3gUuhife9UV1E4KLszD-2" style="edgeStyle=none;html=1;exitX=0.5;exitY=1;exitDx=0;exitDy=0;exitPerimeter=0;entryX=0.5;entryY=0;entryDx=0;entryDy=0;entryPerimeter=0;" edge="1" parent="1" source="h3gUuhife9UV1E4KLszD-1">
          <mxGeometry relative="1" as="geometry">
            <mxPoint x="410" y="130" as="targetPoint" />
          </mxGeometry>
        </mxCell>
        <mxCell id="h3gUuhife9UV1E4KLszD-3" style="edgeStyle=none;html=1;exitX=0.5;exitY=1;exitDx=0;exitDy=0;exitPerimeter=0;entryX=0.5;entryY=0;entryDx=0;entryDy=0;" edge="1" parent="1" source="h3gUuhife9UV1E4KLszD-4" target="h3gUuhife9UV1E4KLszD-8">
          <mxGeometry relative="1" as="geometry" />
        </mxCell>
        <mxCell id="h3gUuhife9UV1E4KLszD-4" value="~{WE}ポジティブエッジ割り込み" style="strokeWidth=2;html=1;shape=mxgraph.flowchart.start_1;whiteSpace=wrap;" vertex="1" parent="1">
          <mxGeometry x="770" y="50" width="100" height="60" as="geometry" />
        </mxCell>
        <mxCell id="h3gUuhife9UV1E4KLszD-5" value="" style="edgeStyle=none;html=1;" edge="1" parent="1" source="h3gUuhife9UV1E4KLszD-6" target="h3gUuhife9UV1E4KLszD-14">
          <mxGeometry relative="1" as="geometry" />
        </mxCell>
        <mxCell id="h3gUuhife9UV1E4KLszD-6" value="~{OE}ポジティブエッジ割り込み" style="strokeWidth=2;html=1;shape=mxgraph.flowchart.start_1;whiteSpace=wrap;" vertex="1" parent="1">
          <mxGeometry x="940" y="50" width="100" height="60" as="geometry" />
        </mxCell>
        <mxCell id="h3gUuhife9UV1E4KLszD-7" style="edgeStyle=none;html=1;exitX=0.5;exitY=1;exitDx=0;exitDy=0;entryX=0.5;entryY=0;entryDx=0;entryDy=0;" edge="1" parent="1" source="h3gUuhife9UV1E4KLszD-8" target="h3gUuhife9UV1E4KLszD-11">
          <mxGeometry relative="1" as="geometry" />
        </mxCell>
        <mxCell id="h3gUuhife9UV1E4KLszD-8" value="RAM配列のPF[0:3]番目に&lt;div&gt;PE[0:3]を書き込む&lt;/div&gt;" style="rounded=1;whiteSpace=wrap;html=1;absoluteArcSize=1;arcSize=14;strokeWidth=2;" vertex="1" parent="1">
          <mxGeometry x="770" y="140" width="100" height="60" as="geometry" />
        </mxCell>
        <mxCell id="h3gUuhife9UV1E4KLszD-9" value="メインループ" style="strokeWidth=2;html=1;shape=mxgraph.flowchart.loop_limit;whiteSpace=wrap;" vertex="1" parent="1">
          <mxGeometry x="357" y="300" width="100" height="60" as="geometry" />
        </mxCell>
        <mxCell id="h3gUuhife9UV1E4KLszD-10" value="" style="edgeStyle=none;html=1;" edge="1" parent="1" source="h3gUuhife9UV1E4KLszD-11" target="h3gUuhife9UV1E4KLszD-12">
          <mxGeometry relative="1" as="geometry" />
        </mxCell>
        <mxCell id="h3gUuhife9UV1E4KLszD-11" value="PORTA_OUT_WE,&lt;div&gt;PORTB_OUT_WEをHighに&lt;/div&gt;" style="rounded=1;whiteSpace=wrap;html=1;absoluteArcSize=1;arcSize=14;strokeWidth=2;" vertex="1" parent="1">
          <mxGeometry x="770" y="230" width="100" height="60" as="geometry" />
        </mxCell>
        <mxCell id="h3gUuhife9UV1E4KLszD-12" value="return" style="strokeWidth=2;html=1;shape=mxgraph.flowchart.terminator;whiteSpace=wrap;" vertex="1" parent="1">
          <mxGeometry x="770" y="320" width="100" height="60" as="geometry" />
        </mxCell>
        <mxCell id="h3gUuhife9UV1E4KLszD-13" value="" style="edgeStyle=none;html=1;" edge="1" parent="1" source="h3gUuhife9UV1E4KLszD-14" target="h3gUuhife9UV1E4KLszD-16">
          <mxGeometry relative="1" as="geometry" />
        </mxCell>
        <mxCell id="h3gUuhife9UV1E4KLszD-14" value="PE[0:3]をHi-Z&lt;br&gt;にする" style="rounded=1;whiteSpace=wrap;html=1;absoluteArcSize=1;arcSize=14;strokeWidth=2;" vertex="1" parent="1">
          <mxGeometry x="940" y="140" width="100" height="60" as="geometry" />
        </mxCell>
        <mxCell id="h3gUuhife9UV1E4KLszD-15" value="" style="edgeStyle=none;html=1;" edge="1" parent="1" source="h3gUuhife9UV1E4KLszD-16" target="h3gUuhife9UV1E4KLszD-17">
          <mxGeometry relative="1" as="geometry" />
        </mxCell>
        <mxCell id="h3gUuhife9UV1E4KLszD-16" value="PORT_IN_OEを&lt;br&gt;Highに" style="rounded=1;whiteSpace=wrap;html=1;absoluteArcSize=1;arcSize=14;strokeWidth=2;" vertex="1" parent="1">
          <mxGeometry x="940" y="230" width="100" height="60" as="geometry" />
        </mxCell>
        <mxCell id="h3gUuhife9UV1E4KLszD-17" value="return" style="strokeWidth=2;html=1;shape=mxgraph.flowchart.terminator;whiteSpace=wrap;" vertex="1" parent="1">
          <mxGeometry x="940" y="320" width="100" height="60" as="geometry" />
        </mxCell>
        <mxCell id="h3gUuhife9UV1E4KLszD-18" value="" style="edgeStyle=none;html=1;" edge="1" parent="1" target="h3gUuhife9UV1E4KLszD-9">
          <mxGeometry relative="1" as="geometry">
            <mxPoint x="407" y="270" as="sourcePoint" />
          </mxGeometry>
        </mxCell>
        <mxCell id="h3gUuhife9UV1E4KLszD-19" value="" style="edgeStyle=none;html=1;" edge="1" parent="1" source="h3gUuhife9UV1E4KLszD-20" target="h3gUuhife9UV1E4KLszD-77">
          <mxGeometry relative="1" as="geometry" />
        </mxCell>
        <mxCell id="h3gUuhife9UV1E4KLszD-20" value="ピン等初期設定" style="rounded=1;whiteSpace=wrap;html=1;absoluteArcSize=1;arcSize=14;strokeWidth=2;" vertex="1" parent="1">
          <mxGeometry x="360" y="130" width="100" height="60" as="geometry" />
        </mxCell>
        <mxCell id="h3gUuhife9UV1E4KLszD-21" value="メインループ" style="strokeWidth=2;html=1;shape=mxgraph.flowchart.loop_limit;whiteSpace=wrap;rotation=-180;" vertex="1" parent="1">
          <mxGeometry x="357" y="1050" width="100" height="60" as="geometry" />
        </mxCell>
        <mxCell id="h3gUuhife9UV1E4KLszD-22" value="" style="edgeStyle=none;html=1;" edge="1" parent="1" source="h3gUuhife9UV1E4KLszD-24" target="h3gUuhife9UV1E4KLszD-47">
          <mxGeometry relative="1" as="geometry" />
        </mxCell>
        <mxCell id="h3gUuhife9UV1E4KLszD-23" value="いいえ" style="edgeLabel;html=1;align=center;verticalAlign=middle;resizable=0;points=[];" vertex="1" connectable="0" parent="h3gUuhife9UV1E4KLszD-22">
          <mxGeometry x="-0.2833" relative="1" as="geometry">
            <mxPoint y="-1" as="offset" />
          </mxGeometry>
        </mxCell>
        <mxCell id="h3gUuhife9UV1E4KLszD-24" value="UART受信？" style="strokeWidth=2;html=1;shape=mxgraph.flowchart.decision;whiteSpace=wrap;" vertex="1" parent="1">
          <mxGeometry x="357" y="380" width="100" height="60" as="geometry" />
        </mxCell>
        <mxCell id="h3gUuhife9UV1E4KLszD-25" style="edgeStyle=none;html=1;exitX=0.5;exitY=1;exitDx=0;exitDy=0;exitPerimeter=0;entryX=0.5;entryY=0;entryDx=0;entryDy=0;entryPerimeter=0;" edge="1" parent="1" source="h3gUuhife9UV1E4KLszD-9" target="h3gUuhife9UV1E4KLszD-24">
          <mxGeometry relative="1" as="geometry" />
        </mxCell>
        <mxCell id="h3gUuhife9UV1E4KLszD-26" style="edgeStyle=orthogonalEdgeStyle;html=1;exitX=0.5;exitY=1;exitDx=0;exitDy=0;exitPerimeter=0;entryX=0.5;entryY=0;entryDx=0;entryDy=0;" edge="1" parent="1" source="h3gUuhife9UV1E4KLszD-28" target="h3gUuhife9UV1E4KLszD-39">
          <mxGeometry relative="1" as="geometry">
            <Array as="points">
              <mxPoint x="727" y="510" />
              <mxPoint x="790" y="510" />
            </Array>
          </mxGeometry>
        </mxCell>
        <mxCell id="h3gUuhife9UV1E4KLszD-27" value="&quot;R\r\n&quot;" style="edgeLabel;html=1;align=center;verticalAlign=middle;resizable=0;points=[];" vertex="1" connectable="0" parent="h3gUuhife9UV1E4KLszD-26">
          <mxGeometry x="0.5043" y="1" relative="1" as="geometry">
            <mxPoint x="-1" y="8" as="offset" />
          </mxGeometry>
        </mxCell>
        <mxCell id="h3gUuhife9UV1E4KLszD-28" value="受信文字は?" style="strokeWidth=2;html=1;shape=mxgraph.flowchart.decision;whiteSpace=wrap;" vertex="1" parent="1">
          <mxGeometry x="677" y="430" width="100" height="60" as="geometry" />
        </mxCell>
        <mxCell id="h3gUuhife9UV1E4KLszD-29" style="edgeStyle=orthogonalEdgeStyle;html=1;exitX=1;exitY=0.5;exitDx=0;exitDy=0;exitPerimeter=0;entryX=0.5;entryY=0;entryDx=0;entryDy=0;entryPerimeter=0;" edge="1" parent="1" source="h3gUuhife9UV1E4KLszD-24" target="h3gUuhife9UV1E4KLszD-28">
          <mxGeometry relative="1" as="geometry" />
        </mxCell>
        <mxCell id="h3gUuhife9UV1E4KLszD-30" value="はい" style="edgeLabel;html=1;align=center;verticalAlign=middle;resizable=0;points=[];" vertex="1" connectable="0" parent="h3gUuhife9UV1E4KLszD-29">
          <mxGeometry x="-0.6719" y="1" relative="1" as="geometry">
            <mxPoint as="offset" />
          </mxGeometry>
        </mxCell>
        <mxCell id="h3gUuhife9UV1E4KLszD-31" value="" style="edgeStyle=none;html=1;" edge="1" parent="1" source="h3gUuhife9UV1E4KLszD-82" target="h3gUuhife9UV1E4KLszD-38">
          <mxGeometry relative="1" as="geometry" />
        </mxCell>
        <mxCell id="h3gUuhife9UV1E4KLszD-32" value="いいえ" style="edgeLabel;html=1;align=center;verticalAlign=middle;resizable=0;points=[];" vertex="1" connectable="0" parent="h3gUuhife9UV1E4KLszD-31">
          <mxGeometry x="-0.8497" y="1" relative="1" as="geometry">
            <mxPoint x="-1" y="16" as="offset" />
          </mxGeometry>
        </mxCell>
        <mxCell id="h3gUuhife9UV1E4KLszD-33" value="intel hex受信？" style="strokeWidth=2;html=1;shape=mxgraph.flowchart.decision;whiteSpace=wrap;" vertex="1" parent="1">
          <mxGeometry x="547" y="540" width="100" height="60" as="geometry" />
        </mxCell>
        <mxCell id="h3gUuhife9UV1E4KLszD-34" style="edgeStyle=orthogonalEdgeStyle;html=1;exitX=0.5;exitY=1;exitDx=0;exitDy=0;exitPerimeter=0;entryX=0.5;entryY=0;entryDx=0;entryDy=0;entryPerimeter=0;" edge="1" parent="1" source="h3gUuhife9UV1E4KLszD-28" target="h3gUuhife9UV1E4KLszD-33">
          <mxGeometry relative="1" as="geometry">
            <Array as="points">
              <mxPoint x="727" y="510" />
              <mxPoint x="597" y="510" />
            </Array>
          </mxGeometry>
        </mxCell>
        <mxCell id="h3gUuhife9UV1E4KLszD-35" value="&quot;L\r\n&quot;" style="edgeLabel;html=1;align=center;verticalAlign=middle;resizable=0;points=[];" vertex="1" connectable="0" parent="h3gUuhife9UV1E4KLszD-34">
          <mxGeometry x="0.0224" y="-1" relative="1" as="geometry">
            <mxPoint x="-58" y="11" as="offset" />
          </mxGeometry>
        </mxCell>
        <mxCell id="h3gUuhife9UV1E4KLszD-36" style="edgeStyle=none;html=1;exitX=0.5;exitY=1;exitDx=0;exitDy=0;entryX=0.5;entryY=0;entryDx=0;entryDy=0;" edge="1" parent="1" source="h3gUuhife9UV1E4KLszD-86" target="h3gUuhife9UV1E4KLszD-41">
          <mxGeometry relative="1" as="geometry" />
        </mxCell>
        <mxCell id="h3gUuhife9UV1E4KLszD-37" value="はい" style="edgeLabel;html=1;align=center;verticalAlign=middle;resizable=0;points=[];" vertex="1" connectable="0" parent="h3gUuhife9UV1E4KLszD-36">
          <mxGeometry x="-0.5098" y="2" relative="1" as="geometry">
            <mxPoint y="-1" as="offset" />
          </mxGeometry>
        </mxCell>
        <mxCell id="h3gUuhife9UV1E4KLszD-38" value="ROM配列にHEXの内容を格納" style="rounded=1;whiteSpace=wrap;html=1;absoluteArcSize=1;arcSize=14;strokeWidth=2;" vertex="1" parent="1">
          <mxGeometry x="547" y="740" width="100" height="60" as="geometry" />
        </mxCell>
        <mxCell id="h3gUuhife9UV1E4KLszD-39" value="UARTにRAM配列の内容をカンマ区切りで出力" style="rounded=1;whiteSpace=wrap;html=1;absoluteArcSize=1;arcSize=14;strokeWidth=2;" vertex="1" parent="1">
          <mxGeometry x="740" y="540" width="100" height="60" as="geometry" />
        </mxCell>
        <mxCell id="h3gUuhife9UV1E4KLszD-40" style="edgeStyle=orthogonalEdgeStyle;html=1;exitX=0.5;exitY=1;exitDx=0;exitDy=0;entryX=0.5;entryY=1;entryDx=0;entryDy=0;entryPerimeter=0;" edge="1" parent="1" source="h3gUuhife9UV1E4KLszD-39" target="h3gUuhife9UV1E4KLszD-21">
          <mxGeometry relative="1" as="geometry">
            <Array as="points">
              <mxPoint x="790" y="1030" />
              <mxPoint x="407" y="1030" />
            </Array>
          </mxGeometry>
        </mxCell>
        <mxCell id="h3gUuhife9UV1E4KLszD-41" value="ROM配列からEEPROMに転送" style="rounded=1;whiteSpace=wrap;html=1;absoluteArcSize=1;arcSize=14;strokeWidth=2;" vertex="1" parent="1">
          <mxGeometry x="547" y="950" width="100" height="60" as="geometry" />
        </mxCell>
        <mxCell id="h3gUuhife9UV1E4KLszD-42" style="edgeStyle=orthogonalEdgeStyle;html=1;exitX=0.5;exitY=1;exitDx=0;exitDy=0;entryX=0.5;entryY=1;entryDx=0;entryDy=0;entryPerimeter=0;" edge="1" parent="1" source="h3gUuhife9UV1E4KLszD-41" target="h3gUuhife9UV1E4KLszD-21">
          <mxGeometry relative="1" as="geometry">
            <Array as="points">
              <mxPoint x="597" y="1030" />
              <mxPoint x="407" y="1030" />
            </Array>
          </mxGeometry>
        </mxCell>
        <mxCell id="h3gUuhife9UV1E4KLszD-43" style="edgeStyle=orthogonalEdgeStyle;html=1;exitX=0;exitY=0.5;exitDx=0;exitDy=0;exitPerimeter=0;entryX=0.5;entryY=0;entryDx=0;entryDy=0;entryPerimeter=0;" edge="1" parent="1" source="h3gUuhife9UV1E4KLszD-47" target="h3gUuhife9UV1E4KLszD-94">
          <mxGeometry relative="1" as="geometry">
            <mxPoint x="117" y="520" as="targetPoint" />
          </mxGeometry>
        </mxCell>
        <mxCell id="h3gUuhife9UV1E4KLszD-44" value="はい" style="edgeLabel;html=1;align=center;verticalAlign=middle;resizable=0;points=[];" vertex="1" connectable="0" parent="h3gUuhife9UV1E4KLszD-43">
          <mxGeometry x="-0.405" y="-2" relative="1" as="geometry">
            <mxPoint x="-26" y="2" as="offset" />
          </mxGeometry>
        </mxCell>
        <mxCell id="h3gUuhife9UV1E4KLszD-45" value="" style="edgeStyle=none;html=1;" edge="1" parent="1" source="h3gUuhife9UV1E4KLszD-47" target="h3gUuhife9UV1E4KLszD-57">
          <mxGeometry relative="1" as="geometry" />
        </mxCell>
        <mxCell id="h3gUuhife9UV1E4KLszD-46" value="いいえ" style="edgeLabel;html=1;align=center;verticalAlign=middle;resizable=0;points=[];" vertex="1" connectable="0" parent="h3gUuhife9UV1E4KLszD-45">
          <mxGeometry x="-0.39" relative="1" as="geometry">
            <mxPoint as="offset" />
          </mxGeometry>
        </mxCell>
        <mxCell id="h3gUuhife9UV1E4KLszD-47" value="OEはLow？" style="strokeWidth=2;html=1;shape=mxgraph.flowchart.decision;whiteSpace=wrap;" vertex="1" parent="1">
          <mxGeometry x="357" y="470" width="100" height="60" as="geometry" />
        </mxCell>
        <mxCell id="h3gUuhife9UV1E4KLszD-48" value="" style="edgeStyle=orthogonalEdgeStyle;html=1;entryX=0.5;entryY=0;entryDx=0;entryDy=0;" edge="1" parent="1" target="h3gUuhife9UV1E4KLszD-67">
          <mxGeometry relative="1" as="geometry">
            <mxPoint x="117" y="580" as="sourcePoint" />
            <mxPoint x="117" y="615" as="targetPoint" />
            <Array as="points">
              <mxPoint x="118" y="580" />
              <mxPoint x="118" y="610" />
              <mxPoint x="70" y="610" />
            </Array>
          </mxGeometry>
        </mxCell>
        <mxCell id="h3gUuhife9UV1E4KLszD-95" value="はい" style="edgeLabel;html=1;align=center;verticalAlign=middle;resizable=0;points=[];" vertex="1" connectable="0" parent="h3gUuhife9UV1E4KLszD-48">
          <mxGeometry x="-0.8045" y="2" relative="1" as="geometry">
            <mxPoint as="offset" />
          </mxGeometry>
        </mxCell>
        <mxCell id="h3gUuhife9UV1E4KLszD-53" style="edgeStyle=orthogonalEdgeStyle;html=1;exitX=0;exitY=0.5;exitDx=0;exitDy=0;exitPerimeter=0;entryX=0.5;entryY=0;entryDx=0;entryDy=0;entryPerimeter=0;" edge="1" parent="1" source="h3gUuhife9UV1E4KLszD-57" target="h3gUuhife9UV1E4KLszD-66">
          <mxGeometry relative="1" as="geometry">
            <mxPoint x="277" y="630" as="targetPoint" />
          </mxGeometry>
        </mxCell>
        <mxCell id="h3gUuhife9UV1E4KLszD-54" value="はい" style="edgeLabel;html=1;align=center;verticalAlign=middle;resizable=0;points=[];" vertex="1" connectable="0" parent="h3gUuhife9UV1E4KLszD-53">
          <mxGeometry x="-0.0889" relative="1" as="geometry">
            <mxPoint as="offset" />
          </mxGeometry>
        </mxCell>
        <mxCell id="h3gUuhife9UV1E4KLszD-55" style="edgeStyle=orthogonalEdgeStyle;html=1;exitX=0.5;exitY=1;exitDx=0;exitDy=0;exitPerimeter=0;entryX=0.5;entryY=0;entryDx=0;entryDy=0;" edge="1" parent="1" source="h3gUuhife9UV1E4KLszD-57" target="h3gUuhife9UV1E4KLszD-89">
          <mxGeometry relative="1" as="geometry">
            <Array as="points">
              <mxPoint x="407" y="680" />
              <mxPoint x="470" y="680" />
              <mxPoint x="470" y="800" />
              <mxPoint x="407" y="800" />
            </Array>
          </mxGeometry>
        </mxCell>
        <mxCell id="h3gUuhife9UV1E4KLszD-56" value="いいえ" style="edgeLabel;html=1;align=center;verticalAlign=middle;resizable=0;points=[];" vertex="1" connectable="0" parent="h3gUuhife9UV1E4KLszD-55">
          <mxGeometry x="-0.926" y="1" relative="1" as="geometry">
            <mxPoint as="offset" />
          </mxGeometry>
        </mxCell>
        <mxCell id="h3gUuhife9UV1E4KLszD-57" value="WEはLow？" style="strokeWidth=2;html=1;shape=mxgraph.flowchart.decision;whiteSpace=wrap;" vertex="1" parent="1">
          <mxGeometry x="357" y="590" width="100" height="60" as="geometry" />
        </mxCell>
        <mxCell id="h3gUuhife9UV1E4KLszD-59" value="&lt;h1 style=&quot;margin-top: 0px; line-height: 100%;&quot;&gt;&lt;font data-font-src=&quot;https://fonts.googleapis.com/css?family=Noto+Sans+JP&quot; face=&quot;Noto Sans JP&quot;&gt;コマンド仕様&lt;/font&gt;&lt;/h1&gt;&lt;p style=&quot;line-height: 100%;&quot;&gt;&lt;font data-font-src=&quot;https://fonts.googleapis.com/css?family=Noto+Sans+JP&quot; face=&quot;Noto Sans JP&quot;&gt;ROM書き込み&lt;/font&gt;&lt;/p&gt;&lt;p style=&quot;line-height: 30%;&quot;&gt;&lt;font data-font-src=&quot;https://fonts.googleapis.com/css?family=Noto+Sans+JP&quot; face=&quot;Noto Sans JP&quot;&gt;コマンド: l&lt;/font&gt;&lt;/p&gt;&lt;p style=&quot;line-height: 30%;&quot;&gt;&lt;font data-font-src=&quot;https://fonts.googleapis.com/css?family=Noto+Sans+JP&quot; face=&quot;Noto Sans JP&quot;&gt;書式:&lt;/font&gt;&lt;/p&gt;&lt;p style=&quot;line-height: 30%;&quot;&gt;&lt;font data-font-src=&quot;https://fonts.googleapis.com/css?family=Noto+Sans+JP&quot; face=&quot;Noto Sans JP&quot;&gt;l\r\n&lt;/font&gt;&lt;/p&gt;&lt;p style=&quot;line-height: 30%;&quot;&gt;&lt;font data-font-src=&quot;https://fonts.googleapis.com/css?family=Noto+Sans+JP&quot; face=&quot;Noto Sans JP&quot;&gt;:1000000020314B5F6E00001C7D808092A3C1E0E038&lt;/font&gt;&lt;/p&gt;&lt;p style=&quot;line-height: 30%;&quot;&gt;&lt;font data-font-src=&quot;https://fonts.googleapis.com/css?family=Noto+Sans+JP&quot; face=&quot;Noto Sans JP&quot;&gt;...&lt;/font&gt;&lt;/p&gt;&lt;p style=&quot;line-height: 30%;&quot;&gt;&lt;font face=&quot;Noto Sans JP&quot;&gt;:00000001FF&lt;/font&gt;&lt;/p&gt;&lt;p style=&quot;line-height: 30%;&quot;&gt;&lt;font face=&quot;Noto Sans JP&quot;&gt;&lt;br&gt;&lt;/font&gt;&lt;/p&gt;&lt;div&gt;&lt;font face=&quot;Noto Sans JP&quot;&gt;RAM読み出し&lt;/font&gt;&lt;/div&gt;&lt;div&gt;&lt;div&gt;&lt;font face=&quot;Noto Sans JP&quot;&gt;r\r\n&lt;/font&gt;&lt;/div&gt;&lt;/div&gt;&lt;div&gt;0, 1, 2, 3, 4, 5, 6, 7, 8, 9, 10, 11, 12, 13&lt;/div&gt;&lt;div&gt;&lt;br&gt;&lt;/div&gt;&lt;div&gt;&lt;ul&gt;&lt;li&gt;未定義のコマンドは無視&lt;/li&gt;&lt;li&gt;エラーメッセージは何が起きたかわかれば何でもいい（英文で1行が望ましい）&lt;/li&gt;&lt;li&gt;intelhexのフォーマットはwiki見て&lt;/li&gt;&lt;/ul&gt;&lt;/div&gt;" style="text;html=1;whiteSpace=wrap;overflow=hidden;rounded=0;" vertex="1" parent="1">
          <mxGeometry x="1160" y="100" width="300" height="390" as="geometry" />
        </mxCell>
        <mxCell id="h3gUuhife9UV1E4KLszD-62" style="edgeStyle=none;html=1;exitX=0.5;exitY=1;exitDx=0;exitDy=0;exitPerimeter=0;entryX=0.5;entryY=0;entryDx=0;entryDy=0;" edge="1" parent="1" source="h3gUuhife9UV1E4KLszD-66" target="h3gUuhife9UV1E4KLszD-69">
          <mxGeometry relative="1" as="geometry" />
        </mxCell>
        <mxCell id="h3gUuhife9UV1E4KLszD-63" value="14" style="edgeLabel;html=1;align=center;verticalAlign=middle;resizable=0;points=[];" vertex="1" connectable="0" parent="h3gUuhife9UV1E4KLszD-62">
          <mxGeometry x="-0.2667" y="2" relative="1" as="geometry">
            <mxPoint as="offset" />
          </mxGeometry>
        </mxCell>
        <mxCell id="h3gUuhife9UV1E4KLszD-64" style="edgeStyle=orthogonalEdgeStyle;html=1;exitX=0.5;exitY=1;exitDx=0;exitDy=0;exitPerimeter=0;entryX=0.5;entryY=0;entryDx=0;entryDy=0;" edge="1" parent="1" source="h3gUuhife9UV1E4KLszD-66" target="h3gUuhife9UV1E4KLszD-71">
          <mxGeometry relative="1" as="geometry">
            <Array as="points">
              <mxPoint x="397" y="690" />
            </Array>
          </mxGeometry>
        </mxCell>
        <mxCell id="h3gUuhife9UV1E4KLszD-65" value="15" style="edgeLabel;html=1;align=center;verticalAlign=middle;resizable=0;points=[];" vertex="1" connectable="0" parent="h3gUuhife9UV1E4KLszD-64">
          <mxGeometry x="-0.1533" y="4" relative="1" as="geometry">
            <mxPoint as="offset" />
          </mxGeometry>
        </mxCell>
        <mxCell id="h3gUuhife9UV1E4KLszD-66" value="アドレスは？" style="strokeWidth=2;html=1;shape=mxgraph.flowchart.decision;whiteSpace=wrap;" vertex="1" parent="1">
          <mxGeometry x="227" y="630" width="100" height="60" as="geometry" />
        </mxCell>
        <mxCell id="h3gUuhife9UV1E4KLszD-102" style="edgeStyle=orthogonalEdgeStyle;rounded=0;orthogonalLoop=1;jettySize=auto;html=1;exitX=0.5;exitY=1;exitDx=0;exitDy=0;entryX=0.5;entryY=0;entryDx=0;entryDy=0;" edge="1" parent="1" source="h3gUuhife9UV1E4KLszD-67" target="h3gUuhife9UV1E4KLszD-89">
          <mxGeometry relative="1" as="geometry">
            <Array as="points">
              <mxPoint x="70" y="810" />
              <mxPoint x="407" y="810" />
            </Array>
          </mxGeometry>
        </mxCell>
        <mxCell id="h3gUuhife9UV1E4KLszD-67" value="PORT_IN_OEをLowに" style="rounded=1;whiteSpace=wrap;html=1;absoluteArcSize=1;arcSize=14;strokeWidth=2;" vertex="1" parent="1">
          <mxGeometry x="20" y="710" width="100" height="60" as="geometry" />
        </mxCell>
        <mxCell id="h3gUuhife9UV1E4KLszD-68" style="edgeStyle=orthogonalEdgeStyle;html=1;exitX=0.5;exitY=1;exitDx=0;exitDy=0;entryX=0.5;entryY=0;entryDx=0;entryDy=0;" edge="1" parent="1" source="h3gUuhife9UV1E4KLszD-69" target="h3gUuhife9UV1E4KLszD-89">
          <mxGeometry relative="1" as="geometry" />
        </mxCell>
        <mxCell id="h3gUuhife9UV1E4KLszD-69" value="PORTA_OUT_WEをLowに" style="rounded=1;whiteSpace=wrap;html=1;absoluteArcSize=1;arcSize=14;strokeWidth=2;" vertex="1" parent="1">
          <mxGeometry x="227" y="720" width="100" height="60" as="geometry" />
        </mxCell>
        <mxCell id="h3gUuhife9UV1E4KLszD-70" style="edgeStyle=orthogonalEdgeStyle;html=1;exitX=0.5;exitY=1;exitDx=0;exitDy=0;entryX=0.5;entryY=0;entryDx=0;entryDy=0;" edge="1" parent="1" source="h3gUuhife9UV1E4KLszD-71" target="h3gUuhife9UV1E4KLszD-89">
          <mxGeometry relative="1" as="geometry" />
        </mxCell>
        <mxCell id="h3gUuhife9UV1E4KLszD-71" value="PORTB_OUT_WEをLowに" style="rounded=1;whiteSpace=wrap;html=1;absoluteArcSize=1;arcSize=14;strokeWidth=2;" vertex="1" parent="1">
          <mxGeometry x="347" y="720" width="100" height="60" as="geometry" />
        </mxCell>
        <mxCell id="h3gUuhife9UV1E4KLszD-72" value="\r\n : 改行コード" style="text;html=1;align=center;verticalAlign=middle;resizable=0;points=[];autosize=1;strokeColor=none;fillColor=none;" vertex="1" parent="1">
          <mxGeometry x="1160" y="55" width="110" height="30" as="geometry" />
        </mxCell>
        <mxCell id="h3gUuhife9UV1E4KLszD-73" value="←r0...r13をカンマ区切りで出力" style="text;html=1;align=center;verticalAlign=middle;resizable=0;points=[];autosize=1;strokeColor=none;fillColor=none;" vertex="1" parent="1">
          <mxGeometry x="1380" y="310" width="190" height="30" as="geometry" />
        </mxCell>
        <mxCell id="h3gUuhife9UV1E4KLszD-74" value="←これが来たら正常終了&lt;div&gt;空行があればエラーメッセージを送る&lt;/div&gt;" style="text;html=1;align=center;verticalAlign=middle;resizable=0;points=[];autosize=1;strokeColor=none;fillColor=none;" vertex="1" parent="1">
          <mxGeometry x="1241" y="240" width="230" height="40" as="geometry" />
        </mxCell>
        <mxCell id="h3gUuhife9UV1E4KLszD-75" style="edgeStyle=orthogonalEdgeStyle;html=1;exitX=0.5;exitY=1;exitDx=0;exitDy=0;exitPerimeter=0;entryX=0.5;entryY=1;entryDx=0;entryDy=0;entryPerimeter=0;" edge="1" parent="1" source="h3gUuhife9UV1E4KLszD-28" target="h3gUuhife9UV1E4KLszD-21">
          <mxGeometry relative="1" as="geometry">
            <Array as="points">
              <mxPoint x="727" y="510" />
              <mxPoint x="860" y="510" />
              <mxPoint x="860" y="1030" />
              <mxPoint x="407" y="1030" />
            </Array>
          </mxGeometry>
        </mxCell>
        <mxCell id="h3gUuhife9UV1E4KLszD-76" value="それ以外" style="edgeLabel;html=1;align=center;verticalAlign=middle;resizable=0;points=[];" vertex="1" connectable="0" parent="h3gUuhife9UV1E4KLszD-75">
          <mxGeometry x="-0.7593" relative="1" as="geometry">
            <mxPoint y="1" as="offset" />
          </mxGeometry>
        </mxCell>
        <mxCell id="h3gUuhife9UV1E4KLszD-77" value="EEPROMから&lt;div&gt;ROM配列にコピー&lt;/div&gt;" style="rounded=1;whiteSpace=wrap;html=1;absoluteArcSize=1;arcSize=14;strokeWidth=2;" vertex="1" parent="1">
          <mxGeometry x="357" y="210" width="103" height="60" as="geometry" />
        </mxCell>
        <mxCell id="h3gUuhife9UV1E4KLszD-78" value="" style="edgeStyle=none;html=1;" edge="1" parent="1" source="h3gUuhife9UV1E4KLszD-33" target="h3gUuhife9UV1E4KLszD-82">
          <mxGeometry relative="1" as="geometry">
            <mxPoint x="597" y="600" as="sourcePoint" />
            <mxPoint x="597" y="860" as="targetPoint" />
          </mxGeometry>
        </mxCell>
        <mxCell id="h3gUuhife9UV1E4KLszD-79" value="はい" style="edgeLabel;html=1;align=center;verticalAlign=middle;resizable=0;points=[];" vertex="1" connectable="0" parent="h3gUuhife9UV1E4KLszD-78">
          <mxGeometry x="-0.4609" y="4" relative="1" as="geometry">
            <mxPoint as="offset" />
          </mxGeometry>
        </mxCell>
        <mxCell id="h3gUuhife9UV1E4KLszD-80" style="edgeStyle=orthogonalEdgeStyle;html=1;exitX=1;exitY=0.5;exitDx=0;exitDy=0;exitPerimeter=0;entryX=0.5;entryY=0;entryDx=0;entryDy=0;" edge="1" parent="1" source="h3gUuhife9UV1E4KLszD-82" target="h3gUuhife9UV1E4KLszD-84">
          <mxGeometry relative="1" as="geometry" />
        </mxCell>
        <mxCell id="h3gUuhife9UV1E4KLszD-81" value="はい" style="edgeLabel;html=1;align=center;verticalAlign=middle;resizable=0;points=[];" vertex="1" connectable="0" parent="h3gUuhife9UV1E4KLszD-80">
          <mxGeometry x="-0.5609" y="3" relative="1" as="geometry">
            <mxPoint x="-1" as="offset" />
          </mxGeometry>
        </mxCell>
        <mxCell id="h3gUuhife9UV1E4KLszD-82" value="空行？" style="strokeWidth=2;html=1;shape=mxgraph.flowchart.decision;whiteSpace=wrap;" vertex="1" parent="1">
          <mxGeometry x="547" y="640" width="100" height="60" as="geometry" />
        </mxCell>
        <mxCell id="h3gUuhife9UV1E4KLszD-83" style="edgeStyle=orthogonalEdgeStyle;html=1;exitX=0.5;exitY=1;exitDx=0;exitDy=0;entryX=0.5;entryY=1;entryDx=0;entryDy=0;entryPerimeter=0;" edge="1" parent="1" source="h3gUuhife9UV1E4KLszD-84" target="h3gUuhife9UV1E4KLszD-21">
          <mxGeometry relative="1" as="geometry">
            <mxPoint x="670" y="1071.1764705882354" as="targetPoint" />
            <Array as="points">
              <mxPoint x="720" y="1030" />
              <mxPoint x="407" y="1030" />
            </Array>
          </mxGeometry>
        </mxCell>
        <mxCell id="h3gUuhife9UV1E4KLszD-84" value="エラー" style="rounded=1;whiteSpace=wrap;html=1;absoluteArcSize=1;arcSize=14;strokeWidth=2;" vertex="1" parent="1">
          <mxGeometry x="670" y="690" width="100" height="60" as="geometry" />
        </mxCell>
        <mxCell id="h3gUuhife9UV1E4KLszD-85" value="" style="edgeStyle=none;html=1;exitX=0.5;exitY=1;exitDx=0;exitDy=0;entryX=0.5;entryY=0;entryDx=0;entryDy=0;" edge="1" parent="1" source="h3gUuhife9UV1E4KLszD-38" target="h3gUuhife9UV1E4KLszD-86">
          <mxGeometry relative="1" as="geometry">
            <mxPoint x="597" y="800" as="sourcePoint" />
            <mxPoint x="597" y="950" as="targetPoint" />
          </mxGeometry>
        </mxCell>
        <mxCell id="h3gUuhife9UV1E4KLszD-86" value="&lt;span style=&quot;font-family: monospace; font-size: 0px; text-align: start; text-wrap-mode: nowrap;&quot;&gt;%3CmxGraphModel%3E%3Croot%3E%3CmxCell%20id%3D%220%22%2F%3E%3CmxCell%20id%3D%221%22%20parent%3D%220%22%2F%3E%3CmxCell%20id%3D%222%22%20value%3D%22%E7%A9%BA%E8%A1%8C%EF%BC%9F%22%20style%3D%22strokeWidth%3D2%3Bhtml%3D1%3Bshape%3Dmxgraph.flowchart.decision%3BwhiteSpace%3Dwrap%3B%22%20vertex%3D%221%22%20parent%3D%221%22%3E%3CmxGeometry%20x%3D%22547%22%20y%3D%22640%22%20width%3D%22100%22%20height%3D%2260%22%20as%3D%22geometry%22%2F%3E%3C%2FmxCell%3E%3C%2Froot%3E%3C%2FmxGraphModel%3E&lt;/span&gt;&lt;span style=&quot;background-color: transparent; font-size: 0px; text-wrap-mode: nowrap;&quot;&gt;&lt;font face=&quot;monospace&quot;&gt;:00000001FF&lt;/font&gt;&lt;/span&gt;&lt;span style=&quot;background-color: transparent; text-align: start;&quot;&gt;:00000001FF&lt;/span&gt;&lt;div&gt;&lt;span style=&quot;background-color: transparent; text-align: start;&quot;&gt;を受信?&lt;/span&gt;&lt;/div&gt;" style="strokeWidth=2;html=1;shape=mxgraph.flowchart.decision;whiteSpace=wrap;" vertex="1" parent="1">
          <mxGeometry x="547" y="830" width="100" height="60" as="geometry" />
        </mxCell>
        <mxCell id="h3gUuhife9UV1E4KLszD-87" style="edgeStyle=orthogonalEdgeStyle;html=1;exitX=0;exitY=0.5;exitDx=0;exitDy=0;exitPerimeter=0;entryX=0.5;entryY=0;entryDx=0;entryDy=0;entryPerimeter=0;" edge="1" parent="1" source="h3gUuhife9UV1E4KLszD-86" target="h3gUuhife9UV1E4KLszD-82">
          <mxGeometry relative="1" as="geometry">
            <Array as="points">
              <mxPoint x="530" y="860" />
              <mxPoint x="530" y="620" />
              <mxPoint x="597" y="620" />
            </Array>
          </mxGeometry>
        </mxCell>
        <mxCell id="h3gUuhife9UV1E4KLszD-88" value="いいえ" style="edgeLabel;html=1;align=center;verticalAlign=middle;resizable=0;points=[];" vertex="1" connectable="0" parent="h3gUuhife9UV1E4KLszD-87">
          <mxGeometry x="-0.7646" y="1" relative="1" as="geometry">
            <mxPoint as="offset" />
          </mxGeometry>
        </mxCell>
        <mxCell id="h3gUuhife9UV1E4KLszD-101" style="edgeStyle=orthogonalEdgeStyle;rounded=0;orthogonalLoop=1;jettySize=auto;html=1;exitX=0.5;exitY=1;exitDx=0;exitDy=0;entryX=0.5;entryY=0;entryDx=0;entryDy=0;" edge="1" parent="1" source="h3gUuhife9UV1E4KLszD-89" target="h3gUuhife9UV1E4KLszD-99">
          <mxGeometry relative="1" as="geometry" />
        </mxCell>
        <mxCell id="h3gUuhife9UV1E4KLszD-89" value="PD[0:7]をROM配列のPC[0:7](または[0:5])番目にする" style="rounded=1;whiteSpace=wrap;html=1;absoluteArcSize=1;arcSize=14;strokeWidth=2;" vertex="1" parent="1">
          <mxGeometry x="320.5" y="840" width="173" height="60" as="geometry" />
        </mxCell>
        <mxCell id="h3gUuhife9UV1E4KLszD-90" style="edgeStyle=none;html=1;exitX=0.5;exitY=1;exitDx=0;exitDy=0;entryX=0.5;entryY=1;entryDx=0;entryDy=0;entryPerimeter=0;" edge="1" parent="1" source="h3gUuhife9UV1E4KLszD-99" target="h3gUuhife9UV1E4KLszD-21">
          <mxGeometry relative="1" as="geometry" />
        </mxCell>
        <mxCell id="h3gUuhife9UV1E4KLszD-91" style="edgeStyle=none;html=1;exitX=1;exitY=0.5;exitDx=0;exitDy=0;exitPerimeter=0;" edge="1" parent="1" source="h3gUuhife9UV1E4KLszD-33" target="h3gUuhife9UV1E4KLszD-33">
          <mxGeometry relative="1" as="geometry">
            <Array as="points">
              <mxPoint x="690" y="570" />
            </Array>
          </mxGeometry>
        </mxCell>
        <mxCell id="h3gUuhife9UV1E4KLszD-92" value="いいえ" style="edgeLabel;html=1;align=center;verticalAlign=middle;resizable=0;points=[];" vertex="1" connectable="0" parent="h3gUuhife9UV1E4KLszD-91">
          <mxGeometry x="-0.5907" relative="1" as="geometry">
            <mxPoint as="offset" />
          </mxGeometry>
        </mxCell>
        <mxCell id="h3gUuhife9UV1E4KLszD-103" style="edgeStyle=orthogonalEdgeStyle;rounded=0;orthogonalLoop=1;jettySize=auto;html=1;exitX=0.5;exitY=1;exitDx=0;exitDy=0;entryX=0.5;entryY=0;entryDx=0;entryDy=0;" edge="1" parent="1" source="h3gUuhife9UV1E4KLszD-93" target="h3gUuhife9UV1E4KLszD-89">
          <mxGeometry relative="1" as="geometry">
            <Array as="points">
              <mxPoint x="160" y="810" />
              <mxPoint x="407" y="810" />
            </Array>
          </mxGeometry>
        </mxCell>
        <mxCell id="h3gUuhife9UV1E4KLszD-93" value="PEをOUTPUTに" style="rounded=1;whiteSpace=wrap;html=1;absoluteArcSize=1;arcSize=14;strokeWidth=2;" vertex="1" parent="1">
          <mxGeometry x="110" y="630" width="100" height="60" as="geometry" />
        </mxCell>
        <mxCell id="h3gUuhife9UV1E4KLszD-96" style="edgeStyle=orthogonalEdgeStyle;rounded=0;orthogonalLoop=1;jettySize=auto;html=1;exitX=1;exitY=0.5;exitDx=0;exitDy=0;exitPerimeter=0;entryX=0.5;entryY=0;entryDx=0;entryDy=0;" edge="1" parent="1" source="h3gUuhife9UV1E4KLszD-94" target="h3gUuhife9UV1E4KLszD-93">
          <mxGeometry relative="1" as="geometry" />
        </mxCell>
        <mxCell id="h3gUuhife9UV1E4KLszD-97" value="いいえ" style="edgeLabel;html=1;align=center;verticalAlign=middle;resizable=0;points=[];" vertex="1" connectable="0" parent="h3gUuhife9UV1E4KLszD-96">
          <mxGeometry x="-0.4436" y="1" relative="1" as="geometry">
            <mxPoint as="offset" />
          </mxGeometry>
        </mxCell>
        <mxCell id="h3gUuhife9UV1E4KLszD-94" value="アドレスは14？" style="strokeWidth=2;html=1;shape=mxgraph.flowchart.decision;whiteSpace=wrap;" vertex="1" parent="1">
          <mxGeometry x="67" y="520" width="100" height="60" as="geometry" />
        </mxCell>
        <mxCell id="h3gUuhife9UV1E4KLszD-99" value="PE[0:3]をRAM配列のPF[0:3]番目にする" style="rounded=1;whiteSpace=wrap;html=1;absoluteArcSize=1;arcSize=14;strokeWidth=2;" vertex="1" parent="1">
          <mxGeometry x="320.5" y="930" width="173" height="60" as="geometry" />
        </mxCell>
      </root>
    </mxGraphModel>
  </diagram>
</mxfile>
